<?xml version="1.0" encoding="utf-8"?>
<!-- Generator: Adobe Illustrator 25.0.1, SVG Export Plug-In . SVG Version: 6.00 Build 0)  -->
<svg version="1.1" xmlns="http://www.w3.org/2000/svg" xmlns:xlink="http://www.w3.org/1999/xlink" x="0px" y="0px" width="100px"
	 height="100px" viewBox="0 0 100 100" style="enable-background:new 0 0 100 100;" xml:space="preserve">
<style type="text/css">
	.st0{fill:none;stroke:#000000;stroke-miterlimit:10;}
	.st1{fill:#FF0000;}
	.st2{fill:none;stroke:#000000;stroke-width:0.25;stroke-miterlimit:10;}
	.st3{fill:#6C5CE7;}
	.st4{fill:#E17055;}
	.st5{fill:#74B9FF;}
	.st6{fill:#DFE6E9;}
	.st7{fill:#B2BEC3;}
	.st8{fill:#666666;}
	.st9{fill:#E6E6E6;}
	.st10{fill:#F2F2F2;}
	.st11{fill:#111111;}
	.st12{fill:#3A3A3A;}
	.st13{fill:#F7F7F7;}
	.st14{fill:#D63031;}
	.st15{fill:#0984E3;}
	.st16{fill:#00B894;}
	.st17{fill:#575757;}
	.st18{fill:#FFFFFF;}
	.st19{fill:#333333;}
	.st20{fill:#00FF00;}
	.st21{fill:#B3B3B3;}
</style>
<g id="圖層_5">
</g>
<g id="simple">
</g>
<g id="open">
</g>
<g id="github">
	<g>
		<path class="st11" d="M85.277,32.369v-8.815h-8.815c0,14.134,0,29.944,0,44.077c-4.394,0-13.238,0-17.631,0
			c0,7.853,0,18.594,0,26.446h8.815v-8.815c4.394,0,13.238,0,17.631,0c0-4.394,0-13.238,0-17.631h8.815c0-11.048,0-24.214,0-35.262
			H85.277z"/>
		<path class="st11" d="M67.646,14.738V5.923c-11.048,0-24.214,0-35.262,0v8.815h-8.815v8.815c4.394,0,13.238,0,17.631,0v8.815
			c4.394,0,13.238,0,17.631,0v-8.815c4.394,0,13.238,0,17.631,0v-8.815H67.646z"/>
		<path class="st11" d="M32.385,94.077H41.2v-8.815c-4.394,0-13.238,0-17.631,0v8.815H32.385z"/>
		<path class="st11" d="M14.754,32.369H5.938c0,11.048,0,24.214,0,35.262h8.815c0,4.394,0,13.238,0,17.631h8.815v-8.815
			c4.394,0,13.238,0,17.631,0v-8.815c-4.394,0-13.238,0-17.631,0c0-14.134,0-29.944,0-44.077h-8.815V32.369z"/>
	</g>
</g>
<g id="heart">
</g>
<g id="icon">
</g>
<g id="right-tool-close">
</g>
<g id="right-tool-center">
</g>
<g id="icon-fake">
</g>
<g id="icon-github">
</g>
<g id="icon-100div-min">
</g>
<g id="icon-100div">
</g>
<g id="icon-minesweeper-min">
</g>
<g id="icon-minesweeper">
</g>
<g id="flag">
</g>
<g id="boom">
</g>
<g id="arrow">
</g>
<g id="zoom">
</g>
<g id="cross">
</g>
<g id="collapse">
</g>
<g id="U">
</g>
<g id="O">
</g>
<g id="D">
</g>
<g id="I">
</g>
<g id="logo">
</g>
</svg>
