<?xml version="1.0" encoding="utf-8"?>
<!-- Generator: Adobe Illustrator 25.0.1, SVG Export Plug-In . SVG Version: 6.00 Build 0)  -->
<svg version="1.1" xmlns="http://www.w3.org/2000/svg" xmlns:xlink="http://www.w3.org/1999/xlink" x="0px" y="0px" width="100px"
	 height="100px" viewBox="0 0 100 100" style="enable-background:new 0 0 100 100;" xml:space="preserve">
<style type="text/css">
	.st0{fill:none;stroke:#000000;stroke-miterlimit:10;}
	.st1{fill:#FF0000;}
	.st2{fill:none;stroke:#000000;stroke-width:0.25;stroke-miterlimit:10;}
	.st3{fill:#6C5CE7;}
	.st4{fill:#E17055;}
	.st5{fill:#74B9FF;}
	.st6{fill:#DFE6E9;}
	.st7{fill:#B2BEC3;}
	.st8{fill:#666666;}
	.st9{fill:#E6E6E6;}
	.st10{fill:#F2F2F2;}
	.st11{fill:#111111;}
	.st12{fill:#3A3A3A;}
	.st13{fill:#F7F7F7;}
	.st14{fill:#D63031;}
	.st15{fill:#0984E3;}
	.st16{fill:#00B894;}
	.st17{fill:#575757;}
	.st18{fill:#FFFFFF;}
	.st19{fill:#333333;}
	.st20{fill:#00FF00;}
	.st21{fill:#B3B3B3;}
</style>
<g id="圖層_5">
</g>
<g id="simple">
</g>
<g id="open">
	<g>
		<path class="st11" d="M85.812,32c0-4.985,0-15.017,0-20c-26.276,0-53.725,0-80,0c0,26.276,0,53.725,0,80c22.885,0,47.115,0,70,0
			V82c-19.475,0-40.525,0-60,0V72h10V62h-10c0-12.533,0-27.468,0-40c19.475,0,40.525,0,60,0v10c-16.033,0-33.967,0-50,0
			c0,8.909,0,21.092,0,30h10c0-4.985,0-15.017,0-20c16.033,0,33.967,0,50,0c0,4.985,0,15.017,0,20h10c0-8.909,0-21.092,0-30H85.812z
			"/>
		<path class="st11" d="M75.812,72v10h10c0-4.985,0-15.017,0-20h-10V72z"/>
	</g>
</g>
<g id="github">
</g>
<g id="heart">
</g>
<g id="icon">
</g>
<g id="right-tool-close">
</g>
<g id="right-tool-center">
</g>
<g id="icon-fake">
</g>
<g id="icon-github">
</g>
<g id="icon-100div-min">
</g>
<g id="icon-100div">
</g>
<g id="icon-minesweeper-min">
</g>
<g id="icon-minesweeper">
</g>
<g id="flag">
</g>
<g id="boom">
</g>
<g id="arrow">
</g>
<g id="zoom">
</g>
<g id="cross">
</g>
<g id="collapse">
</g>
<g id="U">
</g>
<g id="O">
</g>
<g id="D">
</g>
<g id="I">
</g>
<g id="logo">
</g>
</svg>
