<!-- Generator: Adobe Illustrator 25.0.1, SVG Export Plug-In . SVG Version: 6.00 Build 0)  -->
<svg version="1.1"
  xmlns="http://www.w3.org/2000/svg"
  xmlns:xlink="http://www.w3.org/1999/xlink" x="0px" y="0px" width="100px" height="42.629px" viewBox="0 0 100 42.629" style="enable-background:new 0 0 100 42.629;" xml:space="preserve">
  <polygon points="87.822,6.08 87.822,30.428 81.727,30.428 81.727,24.348 75.645,24.348 75.645,12.174 69.549,12.174 69.549,6.08
		63.467,6.08 63.467,42.602 100,42.602 100,6.08 	"/>
  <rect x="42.622" y="18.268" width="12.178" height="24.348"/>
  <polygon points="48.704,6.08 48.704,0 42.622,0 42.622,12.174 54.8,12.174 54.8,6.08 	"/>
  <polygon points="30.438,36.533 30.438,30.451 24.355,30.451 24.355,24.355 18.26,24.355 18.26,18.273 12.178,18.273 12.178,12.178
		6.082,12.178 6.082,6.082 0,6.082 0,42.629 36.533,42.629 36.533,36.533 	"/>
</svg>
