<?xml version="1.0" encoding="utf-8"?>
<!-- Generator: Adobe Illustrator 25.0.1, SVG Export Plug-In . SVG Version: 6.00 Build 0)  -->
<svg version="1.1" xmlns="http://www.w3.org/2000/svg" xmlns:xlink="http://www.w3.org/1999/xlink" x="0px" y="0px" width="100px"
	 height="100px" viewBox="0 0 100 100" style="enable-background:new 0 0 100 100;" xml:space="preserve">
<style type="text/css">
	.st0{fill:none;stroke:#000000;stroke-miterlimit:10;}
	.st1{fill:#FF0000;}
	.st2{fill:none;stroke:#000000;stroke-width:0.25;stroke-miterlimit:10;}
	.st3{fill:#6C5CE7;}
	.st4{fill:#E17055;}
	.st5{fill:#74B9FF;}
	.st6{fill:#DFE6E9;}
	.st7{fill:#B2BEC3;}
	.st8{fill:#666666;}
	.st9{fill:#E6E6E6;}
	.st10{fill:#F2F2F2;}
	.st11{fill:#111111;}
	.st12{fill:#D63031;}
	.st13{fill:#FFFFFF;}
	.st14{fill:#00FF00;}
	.st15{fill:#F7F7F7;}
	.st16{fill:#575757;}
	.st17{fill:#3A3A3A;}
	.st18{fill:#0984E3;}
	.st19{fill:#00B894;}
	.st20{fill:#B3B3B3;}
</style>
<g id="圖層_5">
</g>
<g id="simple">
</g>
<g id="圖層_18">
</g>
<g id="icon">
</g>
<g id="right-tool-close">
</g>
<g id="right-tool-center">
</g>
<g id="icon-100div-min">
	<path class="st11" d="M88.423,4.938h-4H63.79H36.256H15.624h-4v4v2.876v0.005H8.753h-4v4v16.622l-0.031,4v27.503v4h0.031v16.611v4
		h4h2.871v2.881v4h4h20.633H63.79h20.633h4v-4v-2.881h2.871h4v-4V67.944l0.016-4V36.441v-4h-0.016V15.819v-4h-4h-2.868h-0.003V8.938
		V4.938L88.423,4.938z"/>
	<path class="st13" d="M66.513,85.398H16.289v-6.545H9.753V28.69h6.536v-6.545h50.227v6.545h6.532v50.163h-6.535V85.398z
		 M19.143,82.545h44.516v-6.545h6.535V31.543h-6.532v-6.545H19.143v6.54l-6.536,0.006v44.456h6.536V82.545z"/>
	<path class="st13" d="M76.719,68.478H35.305V61.82h-6.648V20.467h6.648v-6.658h41.416v6.658h6.646V61.82h-6.648V68.478z
		 M38.208,65.575h35.608v-6.658h6.648V23.37h-6.646v-6.658h-35.61v6.653L31.56,23.37v35.547h6.648V65.575z"/>
	<path class="st13" d="M82.036,11.569v3.692v2.854h2.854h3.679v20.676h-3.682h-2.854v2.854v3.692H61.298v-3.692v-2.854h-2.854
		h-3.682V18.115h3.682l2.854-0.005v-2.854v-3.687H82.036 M84.89,8.716H58.444v6.54v0.005h-6.535v26.383h6.535v6.545h26.443v-6.545
		h6.535V15.261H84.89V8.716L84.89,8.716z"/>
	<rect y="76.459" class="st14" width="23.567" height="23.541"/>
	<rect x="12.753" y="67.935" class="st14" width="19.91" height="19.888"/>
	<rect x="26.685" y="41.464" class="st14" width="9.955" height="9.944"/>
	<rect x="72.737" y="38.237" class="st14" width="5.617" height="5.611"/>
	<rect x="60.796" y="24.17" class="st14" width="5.103" height="5.097"/>
</g>
<g id="icon-100div">
</g>
<g id="icon-minesweeper-min">
</g>
<g id="icon-minesweeper">
</g>
<g id="flag">
</g>
<g id="boom">
</g>
<g id="arrow">
</g>
<g id="zoom">
</g>
<g id="cross">
</g>
<g id="collapse">
</g>
<g id="U">
</g>
<g id="O">
</g>
<g id="D">
</g>
<g id="I">
</g>
<g id="logo">
</g>
</svg>
