<?xml version="1.0" encoding="utf-8"?>
<!-- Generator: Adobe Illustrator 25.0.1, SVG Export Plug-In . SVG Version: 6.00 Build 0)  -->
<svg version="1.1" xmlns="http://www.w3.org/2000/svg" xmlns:xlink="http://www.w3.org/1999/xlink" x="0px" y="0px" width="100px"
	 height="100px" viewBox="0 0 100 100" style="enable-background:new 0 0 100 100;" xml:space="preserve">
<style type="text/css">
	.st0{fill:none;stroke:#000000;stroke-miterlimit:10;}
	.st1{fill:#FF0000;}
	.st2{fill:none;stroke:#000000;stroke-width:0.25;stroke-miterlimit:10;}
	.st3{fill:#6C5CE7;}
	.st4{fill:#E17055;}
	.st5{fill:#74B9FF;}
	.st6{fill:#DFE6E9;}
	.st7{fill:#B2BEC3;}
	.st8{fill:#666666;}
	.st9{fill:#E6E6E6;}
	.st10{fill:#F2F2F2;}
	.st11{fill:#111111;}
	.st12{fill:#D63031;}
	.st13{fill:#FFFFFF;}
	.st14{fill:#00FF00;}
	.st15{fill:#F7F7F7;}
	.st16{fill:#575757;}
	.st17{fill:#3A3A3A;}
	.st18{fill:#0984E3;}
	.st19{fill:#00B894;}
	.st20{fill:#B3B3B3;}
</style>
<g id="圖層_5">
</g>
<g id="simple">
</g>
<g id="圖層_18">
</g>
<g id="icon">
</g>
<g id="right-tool-close">
</g>
<g id="right-tool-center">
</g>
<g id="icon-100div-min">
</g>
<g id="icon-100div">
	<polygon class="st11" points="92.197,11.803 92.197,7.803 88.197,7.803 88.197,3.803 84.186,3.803 80.185,3.803 76.174,3.803 
		72.174,3.803 68.174,3.803 64.162,3.803 60.162,3.803 56.162,3.803 52.151,3.803 48.15,3.803 44.139,3.803 40.139,3.803 
		36.139,3.803 32.128,3.803 28.127,3.803 24.127,3.803 20.116,3.803 16.116,3.803 12.104,3.803 12.104,7.803 8.104,7.803 
		8.104,11.803 4.104,11.803 4.104,15.814 4.104,19.815 4.104,23.826 4.104,27.826 4.104,31.826 4.104,35.838 4.104,39.838 
		4.104,43.838 4.104,47.849 4.104,51.85 4.104,55.861 4.104,59.861 4.104,63.861 4.104,67.872 4.104,71.873 4.104,75.873 
		4.104,79.884 4.104,83.884 4.104,87.896 8.104,87.896 8.104,91.896 12.104,91.896 12.104,95.896 16.116,95.896 20.116,95.896 
		24.127,95.896 28.127,95.896 32.128,95.896 36.139,95.896 40.139,95.896 44.139,95.896 48.15,95.896 52.151,95.896 56.162,95.896 
		60.162,95.896 64.162,95.896 68.174,95.896 72.174,95.896 76.174,95.896 80.185,95.896 84.186,95.896 88.197,95.896 88.197,91.896 
		92.197,91.896 92.197,87.896 96.197,87.896 96.197,83.884 96.197,79.884 96.197,75.873 96.197,71.873 96.197,67.872 96.197,63.861 
		96.197,59.861 96.197,55.861 96.197,51.85 96.197,47.849 96.197,43.838 96.197,39.838 96.197,35.838 96.197,31.826 96.197,27.826 
		96.197,23.826 96.197,19.815 96.197,15.814 96.197,11.803 	"/>
	<g>
		<polygon class="st13" points="80.185,39.838 80.185,43.838 80.185,47.849 80.185,51.85 80.185,55.861 80.185,59.861 
			84.186,59.861 84.186,55.861 84.186,51.85 84.186,47.849 84.186,43.838 84.186,39.838 		"/>
		<polygon class="st13" points="76.174,63.861 76.174,67.872 80.185,67.872 80.185,63.861 80.185,59.861 76.174,59.861 		"/>
		<polygon class="st13" points="76.174,39.838 80.185,39.838 80.185,35.838 80.185,31.826 76.174,31.826 76.174,35.838 		"/>
		<polygon class="st13" points="72.174,71.873 72.174,75.873 76.174,75.873 76.174,71.873 76.174,67.872 72.174,67.872 		"/>
		<polygon class="st13" points="72.174,31.826 76.174,31.826 76.174,27.826 76.174,23.826 72.174,23.826 72.174,27.826 		"/>
		<polygon class="st13" points="64.162,75.873 64.162,79.884 68.174,79.884 72.174,79.884 72.174,75.873 68.174,75.873 		"/>
		<polygon class="st13" points="68.174,23.826 72.174,23.826 72.174,19.815 68.174,19.815 64.162,19.815 64.162,23.826 		"/>
		<polygon class="st13" points="56.162,79.884 56.162,83.884 60.162,83.884 64.162,83.884 64.162,79.884 60.162,79.884 		"/>
		<polygon class="st13" points="60.162,19.815 64.162,19.815 64.162,15.814 60.162,15.814 56.162,15.814 56.162,19.815 		"/>
		<polygon class="st13" points="48.15,83.884 44.139,83.884 40.139,83.884 36.139,83.884 36.139,87.896 40.139,87.896 
			44.139,87.896 48.15,87.896 52.151,87.896 56.162,87.896 56.162,83.884 52.151,83.884 		"/>
		<polygon class="st13" points="44.139,15.814 48.15,15.814 52.151,15.814 56.162,15.814 56.162,11.803 52.151,11.803 48.15,11.803 
			44.139,11.803 40.139,11.803 36.139,11.803 36.139,15.814 40.139,15.814 		"/>
		<polygon class="st13" points="32.128,79.884 28.127,79.884 28.127,83.884 32.128,83.884 36.139,83.884 36.139,79.884 		"/>
		<polygon class="st13" points="36.139,19.815 36.139,15.814 32.128,15.814 28.127,15.814 28.127,19.815 32.128,19.815 		"/>
		<polygon class="st13" points="24.127,75.873 20.116,75.873 20.116,79.884 24.127,79.884 28.127,79.884 28.127,75.873 		"/>
		<polygon class="st13" points="28.127,23.826 28.127,19.815 24.127,19.815 20.116,19.815 20.116,23.826 24.127,23.826 		"/>
		<polygon class="st13" points="20.116,67.872 16.116,67.872 16.116,71.873 16.116,75.873 20.116,75.873 20.116,71.873 		"/>
		<polygon class="st13" points="20.116,27.826 20.116,23.826 16.116,23.826 16.116,27.826 16.116,31.826 20.116,31.826 		"/>
		<polygon class="st13" points="16.116,59.861 12.104,59.861 12.104,63.861 12.104,67.872 16.116,67.872 16.116,63.861 		"/>
		<polygon class="st13" points="16.116,35.838 16.116,31.826 12.104,31.826 12.104,35.838 12.104,39.838 16.116,39.838 		"/>
		<polygon class="st13" points="12.104,51.85 12.104,47.849 12.104,43.838 12.104,39.838 8.104,39.838 8.104,43.838 8.104,47.849 
			8.104,51.85 8.104,55.861 8.104,59.861 12.104,59.861 12.104,55.861 		"/>
	</g>
	<g>
		<polygon class="st13" points="88.197,27.826 88.197,31.826 88.197,35.838 88.197,39.838 88.197,43.838 92.197,43.838 
			92.197,39.838 92.197,35.838 92.197,31.826 92.197,27.826 		"/>
		<polygon class="st13" points="84.186,47.849 84.186,51.85 88.197,51.85 88.197,47.849 88.197,43.838 84.186,43.838 		"/>
		<polygon class="st13" points="88.197,19.815 84.186,19.815 84.186,23.826 84.186,27.826 88.197,27.826 88.197,23.826 		"/>
		<rect x="80.185" y="15.814" class="st13" width="4" height="4"/>
		<polygon class="st13" points="76.174,11.803 72.174,11.803 72.174,15.814 76.174,15.814 80.185,15.814 80.185,11.803 		"/>
		<polygon class="st13" points="72.174,55.861 72.174,59.861 76.174,59.861 80.185,59.861 80.185,55.861 76.174,55.861 		"/>
		<polygon class="st13" points="68.174,7.803 64.162,7.803 60.162,7.803 56.162,7.803 52.151,7.803 52.151,11.803 56.162,11.803 
			60.162,11.803 64.162,11.803 68.174,11.803 72.174,11.803 72.174,7.803 		"/>
		<polygon class="st13" points="64.162,59.861 60.162,59.861 56.162,59.861 52.151,59.861 52.151,63.861 56.162,63.861 
			60.162,63.861 64.162,63.861 68.174,63.861 72.174,63.861 72.174,59.861 68.174,59.861 		"/>
		<polygon class="st13" points="48.15,55.861 44.139,55.861 44.139,59.861 48.15,59.861 52.151,59.861 52.151,55.861 		"/>
		<rect x="40.139" y="51.85" class="st13" width="4" height="4.011"/>
		<rect x="40.139" y="15.814" class="st13" width="4" height="4"/>
		<polygon class="st13" points="40.139,43.838 36.139,43.838 36.139,47.849 36.139,51.85 40.139,51.85 40.139,47.849 		"/>
		<polygon class="st13" points="40.139,23.826 40.139,19.815 36.139,19.815 36.139,23.826 36.139,27.826 40.139,27.826 		"/>
		<polygon class="st13" points="36.139,35.838 36.139,31.826 36.139,27.826 32.128,27.826 32.128,31.826 32.128,35.838 
			32.128,39.838 32.128,43.838 36.139,43.838 36.139,39.838 		"/>
	</g>
	<g>
		<polygon class="st13" points="92.197,19.815 92.197,23.826 92.197,27.826 96.197,27.826 96.197,23.826 96.197,19.815 		"/>
		<polygon class="st13" points="92.197,11.803 88.197,11.803 88.197,15.814 88.197,19.815 92.197,19.815 92.197,15.814 		"/>
		<rect x="84.186" y="35.838" class="st13" width="4.011" height="4"/>
		<polygon class="st13" points="84.186,7.803 80.185,7.803 80.185,11.803 84.186,11.803 88.197,11.803 88.197,7.803 		"/>
		<polygon class="st13" points="76.174,3.803 72.174,3.803 72.174,7.803 76.174,7.803 80.185,7.803 80.185,3.803 		"/>
		<polygon class="st13" points="72.174,39.838 72.174,43.838 76.174,43.838 80.185,43.838 80.185,39.838 76.174,39.838 		"/>
		<polygon class="st13" points="68.174,35.838 64.162,35.838 64.162,39.838 68.174,39.838 72.174,39.838 72.174,35.838 		"/>
		<polygon class="st13" points="64.162,27.826 60.162,27.826 60.162,31.826 60.162,35.838 64.162,35.838 64.162,31.826 		"/>
		<rect x="60.162" y="11.803" class="st13" width="4" height="4.011"/>
		<polygon class="st13" points="60.162,19.815 56.162,19.815 56.162,23.826 56.162,27.826 60.162,27.826 60.162,23.826 		"/>
	</g>
	<g>
		<polygon class="st14" points="80.185,39.838 80.185,35.838 76.174,35.838 76.174,39.838 76.174,43.838 80.185,43.838 
			84.186,43.838 84.186,39.838 		"/>
		<rect x="64.162" y="23.826" class="st14" width="4.011" height="4"/>
		<polygon class="st14" points="28.127,67.872 28.127,71.873 24.127,71.873 20.116,71.873 20.116,75.873 16.116,75.873 
			12.104,75.873 12.104,79.884 8.104,79.884 4.104,79.884 4.104,83.884 0.093,83.884 0.093,87.896 0.093,91.896 4.104,91.896 
			4.104,95.896 8.104,95.896 8.104,99.907 12.104,99.907 16.116,99.907 20.116,99.907 24.127,99.907 24.127,95.896 24.127,91.896 
			28.127,91.896 28.127,87.896 28.127,83.884 28.127,79.884 32.128,79.884 32.128,75.873 32.128,71.873 36.139,71.873 
			36.139,67.872 32.128,67.872 		"/>
		<polygon class="st14" points="32.128,47.849 32.128,43.838 32.128,39.838 28.127,39.838 24.127,39.838 24.127,43.838 
			24.127,47.849 28.127,47.849 		"/>
	</g>
</g>
<g id="icon-minesweeper-min">
</g>
<g id="icon-minesweeper">
</g>
<g id="flag">
</g>
<g id="boom">
</g>
<g id="arrow">
</g>
<g id="zoom">
</g>
<g id="cross">
</g>
<g id="collapse">
</g>
<g id="U">
</g>
<g id="O">
</g>
<g id="D">
</g>
<g id="I">
</g>
<g id="logo">
</g>
</svg>
