<?xml version="1.0" encoding="utf-8"?>
<!-- Generator: Adobe Illustrator 25.0.1, SVG Export Plug-In . SVG Version: 6.00 Build 0)  -->
<svg version="1.1" xmlns="http://www.w3.org/2000/svg" xmlns:xlink="http://www.w3.org/1999/xlink" x="0px" y="0px" width="100px"
	 height="100px" viewBox="0 0 100 100" style="enable-background:new 0 0 100 100;" xml:space="preserve">
<style type="text/css">
	.st0{fill:none;stroke:#000000;stroke-width:0.25;stroke-miterlimit:10;}
	.st1{fill:#6C5CE7;}
	.st2{fill:#E17055;}
	.st3{fill:#74B9FF;}
	.st4{fill:#DFE6E9;}
	.st5{fill:#B2BEC3;}
	.st6{fill:#666666;}
	.st7{fill:#E6E6E6;}
	.st8{fill:#F2F2F2;}
	.st9{fill:#111111;}
	.st10{fill:#3A3A3A;}
	.st11{fill:#F7F7F7;}
	.st12{fill:#D63031;}
	.st13{fill:#0984E3;}
	.st14{fill:#00B894;}
	.st15{fill:#575757;}
	.st16{fill:#4D4D4D;}
	.st17{fill:#1A1A1A;}
	.st18{fill:#808080;}
	.st19{fill:#CCCCCC;}
	.st20{fill:#333333;}
	.st21{fill:#B3B3B3;}
	.st22{fill:#0C2135;}
	.st23{fill:#999999;}
	.st24{fill:#081728;}
	.st25{fill:#0E274C;}
	.st26{fill:#FFFFFF;}
	.st27{fill:#00FF00;}
	.st28{fill:#FF0000;}
</style>
<g id="圖層_5">
</g>
<g id="simple">
</g>
<g id="icon-bug-min">
</g>
<g id="icon-bug">
	<path class="st25" d="M88.407,4.751h-4H63.775H36.241H15.608h-4v4v2.876v0.005H8.738h-4v4v16.622l-0.031,4v27.503v4h0.031v16.611v4
		h4h2.871v2.881v4h4h20.633h27.534h20.633h4v-4v-2.881h2.871h4v-4V67.757l0.016-4V36.254v-4h-0.016V15.632v-4h-4H88.41h-0.003V8.751
		V4.751L88.407,4.751z"/>
	<polygon class="st16" points="4.738,84.368 4.738,88.368 8.738,88.368 11.608,88.368 11.608,91.249 11.608,95.249 15.608,95.249 
		36.241,95.249 63.775,95.249 84.407,95.249 88.407,95.249 88.407,91.249 88.407,88.368 91.278,88.368 95.278,88.368 95.278,84.368 
		95.278,67.757 95.282,66.666 4.707,66.666 4.707,67.757 4.738,67.757 	"/>
	<polygon class="st21" points="84.336,51.123 79.428,51.123 79.428,35.724 68.348,35.724 68.348,29.778 31.879,29.778 
		31.879,35.724 20.443,35.724 20.443,51.123 15.664,51.123 15.664,76.655 21.394,76.655 21.394,80.178 79.428,80.178 79.428,76.655 
		84.336,76.655 	"/>
	<rect x="28.963" y="46.199" class="st17" width="7.819" height="7.819"/>
	<rect x="60.284" y="46.199" class="st17" width="7.819" height="7.819"/>
	<rect x="44.315" y="33.52" class="st18" width="7.544" height="7.544"/>
	<polygon class="st18" points="74.059,55.528 74.059,64.328 57.997,64.328 57.997,71.368 26.303,71.368 26.303,80.178 
		79.428,80.178 79.428,76.655 84.336,76.655 84.336,55.528 	"/>
</g>
<g id="icon-fake">
</g>
<g id="icon-github">
</g>
<g id="icon-100div-min">
</g>
<g id="icon-100div">
</g>
<g id="icon-minesweeper-min">
</g>
<g id="icon-minesweeper">
</g>
</svg>
