<?xml version="1.0" encoding="utf-8"?>
<!-- Generator: Adobe Illustrator 25.0.1, SVG Export Plug-In . SVG Version: 6.00 Build 0)  -->
<svg version="1.1" xmlns="http://www.w3.org/2000/svg" xmlns:xlink="http://www.w3.org/1999/xlink" x="0px" y="0px" width="100px"
	 height="100px" viewBox="0 0 100 100" style="enable-background:new 0 0 100 100;" xml:space="preserve">
<style type="text/css">
	.st0{fill:none;stroke:#000000;stroke-miterlimit:10;}
	.st1{fill:#FF0000;}
	.st2{fill:none;stroke:#000000;stroke-width:0.25;stroke-miterlimit:10;}
	.st3{fill:#6C5CE7;}
	.st4{fill:#E17055;}
	.st5{fill:#74B9FF;}
	.st6{fill:#DFE6E9;}
	.st7{fill:#B2BEC3;}
	.st8{fill:#666666;}
	.st9{fill:#E6E6E6;}
	.st10{fill:#F2F2F2;}
	.st11{fill:#111111;}
	.st12{fill:#D63031;}
	.st13{fill:#FFFFFF;}
	.st14{fill:#333333;}
	.st15{fill:#00FF00;}
	.st16{fill:#F7F7F7;}
	.st17{fill:#575757;}
	.st18{fill:#3A3A3A;}
	.st19{fill:#0984E3;}
	.st20{fill:#00B894;}
	.st21{fill:#B3B3B3;}
</style>
<g id="圖層_5">
</g>
<g id="simple">
</g>
<g id="圖層_18">
</g>
<g id="icon">
</g>
<g id="right-tool-close">
</g>
<g id="right-tool-center">
</g>
<g id="icon-fake">
	<g>
		<path class="st14" d="M91.292,12.637V8.708h-3.928V4.78H12.637v3.929H8.708v3.929H4.78v74.726h3.929v3.929h3.929v3.928h74.726
			v-3.928h3.928v-3.929h3.929V12.637H91.292z"/>
		<g>
			<path class="st13" d="M83.424,59.832c0,1.96,0,5.908,0,7.868h-3.928v3.929h3.928v3.928h3.939c0-6.302,0-13.351,0-19.653h-3.939
				V59.832z"/>
			<path class="st13" d="M79.496,24.444c-1.961,0-5.908,0-7.868,0c0,6.302,0,13.351,0,19.653c4.93,0,10.806,0,15.735,0v-3.929
				c-3.506,0-8.301,0-11.807,0V36.24c1.961,0,5.908,0,7.868,0v-3.939c-1.96,0-5.908,0-7.868,0v-3.928c3.506,0,8.301,0,11.807,0
				v-3.929C85.403,24.444,81.455,24.444,79.496,24.444z"/>
			<rect x="75.556" y="63.76" class="st13" width="3.939" height="3.939"/>
			<path class="st13" d="M71.628,59.832v-3.929h-3.929c0,6.302,0,13.351,0,19.653h3.929c0-3.503,0-8.294,0-11.796h3.929v-3.928
				H71.628z"/>
			<rect x="63.76" y="40.168" class="st13" width="3.939" height="3.929"/>
			<rect x="63.76" y="24.444" class="st13" width="3.939" height="3.929"/>
			<path class="st13" d="M59.832,63.76c0,1.961,0,5.908,0,7.868h3.929c0-3.503,0-8.294,0-11.796h-3.929V63.76z"/>
			<rect x="59.832" y="36.24" class="st13" width="3.929" height="3.929"/>
			<rect x="59.832" y="28.372" class="st13" width="3.929" height="3.928"/>
			<path class="st13" d="M55.903,32.301c0-1.958,0-5.9,0-7.857h-3.939c0,6.302,0,13.351,0,19.653h3.939c0-1.958,0-5.9,0-7.857h3.929
				v-3.939H55.903z"/>
			<path class="st13" d="M51.964,71.628h-3.928v3.928c3.503,0,8.294,0,11.796,0v-3.928C57.872,71.628,53.924,71.628,51.964,71.628z"
				/>
			<path class="st13" d="M55.903,59.832h3.929v-3.929c-3.503,0-8.294,0-11.796,0v3.929C49.996,59.832,53.943,59.832,55.903,59.832z"
				/>
			<path class="st13" d="M48.036,63.76v-3.928h-3.939c0,3.503,0,8.294,0,11.796h3.939C48.036,69.668,48.036,65.72,48.036,63.76z"/>
			<path class="st13" d="M44.097,44.097h3.939c0-1.958,0-5.9,0-7.857h-3.939C44.097,38.197,44.097,42.139,44.097,44.097z"/>
			<path class="st13" d="M44.097,32.301v-3.928h-3.929v3.928H36.24v-3.928h-3.939c0,1.96,0,5.908,0,7.868c3.503,0,8.294,0,11.796,0
				V32.301z"/>
			<rect x="36.24" y="24.444" class="st13" width="3.929" height="3.929"/>
			<path class="st13" d="M32.301,55.903h-3.929v3.929c3.503,0,8.294,0,11.796,0v-3.929C38.208,55.903,34.261,55.903,32.301,55.903z"
				/>
			<path class="st13" d="M32.301,75.556c1.961,0,5.908,0,7.868,0v-3.928c-3.503,0-8.294,0-11.796,0v3.928H32.301z"/>
			<path class="st13" d="M28.372,40.168v3.929h3.929c0-1.958,0-5.9,0-7.857h-3.929V40.168z"/>
			<path class="st13" d="M24.444,63.76c0,1.961,0,5.908,0,7.868h3.929c0-3.503,0-8.294,0-11.796h-3.929V63.76z"/>
			<path class="st13" d="M24.444,32.301c-1.961,0-5.908,0-7.868,0v-3.928c3.503,0,8.294,0,11.796,0v-3.929
				c-4.93,0-10.806,0-15.735,0c0,6.302,0,13.351,0,19.653h3.939c0-1.958,0-5.9,0-7.857c1.96,0,5.908,0,7.868,0V32.301z"/>
			<path class="st13" d="M12.637,59.832c0,4.926,0,10.798,0,15.725h3.939c0-6.302,0-13.351,0-19.653h-3.939V59.832z"/>
		</g>
	</g>
</g>
<g id="icon-100div-min">
</g>
<g id="icon-100div">
</g>
<g id="icon-minesweeper-min">
</g>
<g id="icon-minesweeper">
</g>
<g id="flag">
</g>
<g id="boom">
</g>
<g id="arrow">
</g>
<g id="zoom">
</g>
<g id="cross">
</g>
<g id="collapse">
</g>
<g id="U">
</g>
<g id="O">
</g>
<g id="D">
</g>
<g id="I">
</g>
<g id="logo">
</g>
</svg>
