<?xml version="1.0" encoding="utf-8"?>
<!-- Generator: Adobe Illustrator 25.0.1, SVG Export Plug-In . SVG Version: 6.00 Build 0)  -->
<svg version="1.1" xmlns="http://www.w3.org/2000/svg" xmlns:xlink="http://www.w3.org/1999/xlink" x="0px" y="0px" width="100px"
	 height="100px" viewBox="0 0 100 100" style="enable-background:new 0 0 100 100;" xml:space="preserve">
<style type="text/css">
	.st0{fill:none;stroke:#000000;stroke-miterlimit:10;}
	.st1{fill:#FF0000;}
	.st2{fill:none;stroke:#000000;stroke-width:0.25;stroke-miterlimit:10;}
	.st3{fill:#6C5CE7;}
	.st4{fill:#E17055;}
	.st5{fill:#74B9FF;}
	.st6{fill:#DFE6E9;}
	.st7{fill:#B2BEC3;}
	.st8{fill:#666666;}
	.st9{fill:#E6E6E6;}
	.st10{fill:#F2F2F2;}
	.st11{fill:#111111;}
	.st12{fill:#3A3A3A;}
	.st13{fill:#F7F7F7;}
	.st14{fill:#D63031;}
	.st15{fill:#0984E3;}
	.st16{fill:#00B894;}
	.st17{fill:#575757;}
	.st18{fill:#FFFFFF;}
	.st19{fill:#333333;}
	.st20{fill:#00FF00;}
	.st21{fill:#B3B3B3;}
</style>
<g id="圖層_5">
</g>
<g id="simple">
</g>
<g id="open">
</g>
<g id="github">
</g>
<g id="heart">
</g>
<g id="icon">
</g>
<g id="right-tool-close">
</g>
<g id="right-tool-center">
</g>
<g id="icon-fake">
</g>
<g id="icon-github">
	<path class="st11" d="M95.382,38.168c0-1.967,0-5.928,0-7.895h-3.953c0-1.967,0-5.928,0-7.895h-3.942v-3.942h-3.942v-3.953h-3.953
		v-3.942c-1.965,0-5.92,0-7.884,0V6.599c-1.967,0-5.928,0-7.895,0V2.646c-9.032,0-18.595,0-27.627,0v3.953c-1.965,0-5.92,0-7.884,0
		v3.942c-1.967,0-5.928,0-7.895,0v3.942h-3.953v3.953h-3.942v3.942H8.569c0,1.967,0,5.928,0,7.895H4.616c0,1.967,0,5.928,0,7.895
		H0.674c0,9.029,0,18.588,0,27.617h3.942c0,1.967,0,5.928,0,7.895h3.953c0,1.967,0,5.928,0,7.895h3.942v3.942h3.942v3.953h3.953
		v3.942c1.967,0,5.928,0,7.895,0v3.942c3.515,0,8.323,0,11.837,0c0-3.515,0-8.323,0-11.837c-4.947,0-10.843,0-15.79,0v-3.942h-3.942
		c0-1.967,0-5.928,0-7.895h-3.953v-3.942h3.953v3.942h3.942v3.942h3.953v3.953c1.965,0,5.92,0,7.884,0v-3.953h3.953V73.68
		c-1.967,0-5.928,0-7.895,0v-3.942h-3.942v-3.953h-3.953v-3.942h-3.942c0-7.684,0-15.99,0-23.674h3.942c0-4.947,0-10.843,0-15.79
		c1.967,0,5.928,0,7.895,0v3.953h3.942v3.942h3.953v-3.942c6.327,0,13.405,0,19.732,0v3.942h3.942v-3.942h3.942v-3.953
		c1.967,0,5.928,0,7.895,0c0,4.947,0,10.843,0,15.79h3.942c0,7.684,0,15.99,0,23.674H75.65v3.942h-3.942v3.953h-3.953v3.942
		c-1.965,0-5.92,0-7.884,0v3.942h3.942c0,6.327,0,13.405,0,19.732c1.967,0,5.928,0,7.895,0v-3.942c1.965,0,5.92,0,7.884,0V89.47
		h3.953v-3.953h3.942v-3.942h3.942c0-1.967,0-5.928,0-7.895h3.953c0-1.967,0-5.928,0-7.895h3.942c0-9.029,0-18.588,0-27.617H95.382z
		"/>
</g>
<g id="icon-100div-min">
</g>
<g id="icon-100div">
</g>
<g id="icon-minesweeper-min">
</g>
<g id="icon-minesweeper">
</g>
<g id="flag">
</g>
<g id="boom">
</g>
<g id="arrow">
</g>
<g id="zoom">
</g>
<g id="cross">
</g>
<g id="collapse">
</g>
<g id="U">
</g>
<g id="O">
</g>
<g id="D">
</g>
<g id="I">
</g>
<g id="logo">
</g>
</svg>
