<?xml version="1.0" encoding="utf-8"?>
<!-- Generator: Adobe Illustrator 25.0.1, SVG Export Plug-In . SVG Version: 6.00 Build 0)  -->
<svg version="1.1" xmlns="http://www.w3.org/2000/svg" xmlns:xlink="http://www.w3.org/1999/xlink" x="0px" y="0px" width="100px"
	 height="100px" viewBox="0 0 100 100" style="enable-background:new 0 0 100 100;" xml:space="preserve">
<style type="text/css">
	.st0{fill:none;stroke:#000000;stroke-miterlimit:10;}
	.st1{fill:#FF0000;}
	.st2{fill:none;stroke:#000000;stroke-width:0.25;stroke-miterlimit:10;}
	.st3{display:none;}
	.st4{display:inline;fill:#FFFF00;stroke:#000000;stroke-width:0.25;stroke-miterlimit:10;}
	.st5{fill:#F7F7F7;}
	.st6{fill:#D63031;}
	.st7{fill:#575757;}
	.st8{fill:#3A3A3A;}
	.st9{fill:#0984E3;}
	.st10{fill:#00B894;}
	.st11{fill:#111111;}
	.st12{fill:#6C5CE7;}
	.st13{fill:#E17055;}
	.st14{fill:#74B9FF;}
	.st15{fill:#DFE6E9;}
	.st16{fill:#B2BEC3;}
	.st17{fill:#666666;}
	.st18{fill:#E6E6E6;}
	.st19{fill:#F2F2F2;}
	.st20{fill:#B3B3B3;}
</style>
<g id="圖層_5">
</g>
<g id="圖層_14" class="st3">
</g>
<g id="icon-minesweeper-min">
	<g>
		<polygon class="st5" points="84.407,15.819 84.407,8.938 63.775,8.938 63.775,15.819 63.775,36.441 84.407,36.441 91.278,36.441 
			91.278,15.819 		"/>
		<polygon class="st5" points="36.241,8.938 36.241,15.819 36.241,36.441 63.775,36.441 63.775,15.819 63.775,8.938 		"/>
		<rect x="36.241" y="36.441" class="st6" width="27.534" height="27.503"/>
		<rect x="43.124" y="43.317" class="st7" width="13.767" height="13.752"/>
		<polygon class="st5" points="15.588,36.441 8.707,36.441 8.707,63.944 15.588,63.944 36.241,63.944 36.241,36.441 		"/>
		<polygon class="st8" points="63.759,36.441 63.759,63.944 84.412,63.944 91.293,63.944 91.293,36.441 84.412,36.441 		"/>
		<polygon class="st8" points="15.608,8.938 15.608,15.819 8.738,15.819 8.738,36.441 15.608,36.441 36.241,36.441 36.241,15.819 
			36.241,8.938 		"/>
		<polygon class="st5" points="15.608,84.555 15.608,91.436 36.241,91.436 36.241,84.555 36.241,63.933 15.608,63.933 8.738,63.933 
			8.738,84.555 		"/>
		<polygon class="st8" points="63.775,91.436 63.775,84.555 63.775,63.933 36.241,63.933 36.241,84.555 36.241,91.436 		"/>
		<polygon class="st5" points="84.407,91.436 84.407,84.555 91.278,84.555 91.278,63.933 84.407,63.933 63.775,63.933 
			63.775,84.555 63.775,91.436 		"/>
		<rect x="15.606" y="43.317" class="st9" width="13.767" height="13.752"/>
		<rect x="70.643" y="15.814" class="st9" width="13.767" height="13.752"/>
		<rect x="15.606" y="15.814" class="st9" width="13.767" height="13.752"/>
		<rect x="43.124" y="70.808" class="st10" width="13.767" height="13.752"/>
		<rect x="70.643" y="43.317" class="st6" width="13.767" height="13.752"/>
	</g>
	<g>
		<path class="st11" d="M84.407,8.938v6.876h0.003v0.005h6.868v20.622h0.016v27.503h-0.016v20.611h-6.871v6.881H63.775H36.241
			H15.608v-6.881H8.738V63.944H8.707V36.441h0.031V15.819h6.868v-0.005h0.003V8.938h20.633h27.534H84.407 M88.407,4.938h-4H63.775
			H36.241H15.608h-4v4v2.876v0.005H8.738h-4v4v16.622l-0.031,4v27.503v4h0.031v16.611v4h4h2.871v2.881v4h4h20.633h27.534h20.633h4
			v-4v-2.881h2.871h4v-4V67.944l0.016-4V36.441v-4h-0.016V15.819v-4h-4H88.41h-0.003V8.938V4.938L88.407,4.938z"/>
	</g>
</g>
<g id="icon-minesweeper">
</g>
<g id="flag">
</g>
<g id="boom">
</g>
<g id="arrow">
</g>
<g id="zoom">
</g>
<g id="cross">
</g>
<g id="collapse">
</g>
<g id="U">
</g>
<g id="O">
</g>
<g id="D">
</g>
<g id="I">
</g>
<g id="logo">
</g>
</svg>
