<?xml version="1.0" encoding="utf-8"?>
<!-- Generator: Adobe Illustrator 25.0.1, SVG Export Plug-In . SVG Version: 6.00 Build 0)  -->
<svg version="1.1" xmlns="http://www.w3.org/2000/svg" xmlns:xlink="http://www.w3.org/1999/xlink" x="0px" y="0px" width="100px"
	 height="100px" viewBox="0 0 100 100" style="enable-background:new 0 0 100 100;" xml:space="preserve">
<style type="text/css">
	.st0{fill:none;stroke:#000000;stroke-miterlimit:10;}
	.st1{fill:#B3B3B3;}
</style>
<g id="圖層_5">
</g>
<g id="flag">
</g>
<g id="boom">
</g>
<g id="arrow">
</g>
<g id="zoom">
</g>
<g id="cross">
</g>
<g id="collapse">
</g>
<g id="U">
</g>
<g id="O">
</g>
<g id="D">
	<rect x="18.193" y="36.35" width="9.08" height="9.11"/>
	<rect x="36.352" y="36.35" width="9.11" height="9.11"/>
	<rect x="72.733" y="36.35" width="9.08" height="9.11"/>
	<rect x="54.543" y="36.35" width="9.1" height="9.11"/>
	<polygon points="54.543,54.54 45.463,54.54 36.352,54.54 27.273,54.54 27.273,63.65 27.273,72.73 36.352,72.73 36.352,63.65 
		45.463,63.65 54.543,63.65 63.643,63.65 63.643,72.73 72.733,72.73 72.733,63.65 72.733,54.54 63.643,54.54 	"/>
	<polygon points="45.463,72.73 36.352,72.73 36.352,81.81 45.463,81.81 54.543,81.81 63.643,81.81 63.643,72.73 54.543,72.73 	"/>
	<rect x="63.643" y="27.27" width="9.091" height="9.08"/>
	<rect x="27.273" y="27.27" width="9.079" height="9.08"/>
	<rect x="81.81" y="72.73" width="9.1" height="9.079"/>
	<rect x="90.91" y="27.27" width="9.09" height="45.46"/>
	<rect x="81.81" y="18.19" width="9.1" height="9.08"/>
	<rect x="72.73" y="81.81" width="9.08" height="9.11"/>
	<rect x="72.73" y="9.08" width="9.08" height="9.11"/>
	<rect x="27.27" y="90.92" width="45.46" height="9.08"/>
	<rect x="27.27" width="45.46" height="9.08"/>
	<rect x="18.19" y="81.81" width="9.08" height="9.11"/>
	<rect x="18.19" y="9.08" width="9.08" height="9.11"/>
	<rect x="9.08" y="72.73" width="9.11" height="9.079"/>
	<rect x="9.08" y="18.19" width="9.11" height="9.08"/>
	<rect y="27.27" width="9.08" height="45.46"/>
</g>
<g id="I">
</g>
</svg>
