<svg version="1.1"
  xmlns="http://www.w3.org/2000/svg"
  xmlns:xlink="http://www.w3.org/1999/xlink" x="0px" y="0px" width="100px" height="100px" viewBox="0 0 100 100" style="enable-background:new 0 0 100 100;" xml:space="preserve">
  <polygon fill="#c4c4c4" class="st1" points="80.01,43.315 73.34,36.655 66.68,23.325 60.01,19.29 39.99,19.29 33.33,23.325 26.66,36.655
		20,43.315 15.125,50.005 15.125,70.005 20,76.665 26.66,83.335 33.33,89.995 39.99,94.165 60.01,94.165 66.68,89.995 73.34,83.335
		80.01,76.665 83.125,70.005 83.125,50.005 	"/>
  <rect x="80.01" y="43.315" width="6.66" height="33.35"/>
  <rect x="73.34" y="76.665" width="6.67" height="6.67"/>
  <rect x="73.34" y="36.655" width="6.67" height="6.66"/>
  <rect x="66.68" y="83.335" width="6.66" height="6.66"/>
  <rect x="66.68" y="23.325" width="6.66" height="13.33"/>
  <rect x="53.35" y="3.335" width="13.33" height="6.66"/>
  <rect x="33.33" y="89.995" width="33.35" height="6.67"/>
  <polygon points="66.68,23.325 66.68,16.655 53.35,16.655 53.35,9.995 46.66,9.995 46.66,16.655 33.33,16.655 33.33,23.325 		"/>
  <rect x="33.33" y="70.005" width="6.66" height="6.66"/>
  <rect x="33.33" y="43.315" width="6.66" height="6.69"/>
  <polygon points="60.01,36.655 60.01,29.985 33.33,29.985 33.33,23.325 26.66,23.325 26.66,36.655 		"/>
  <rect x="26.66" y="83.335" width="6.67" height="6.66"/>
  <rect x="26.66" y="50.005" width="6.67" height="20"/>
  <rect x="20" y="76.665" width="6.66" height="6.67"/>
  <rect x="20" y="36.655" width="6.66" height="6.66"/>
  <rect x="13.33" y="43.315" width="6.67" height="33.35"/>
</svg>
