<?xml version="1.0" encoding="utf-8"?>
<!-- Generator: Adobe Illustrator 25.0.1, SVG Export Plug-In . SVG Version: 6.00 Build 0)  -->
<svg version="1.1" xmlns="http://www.w3.org/2000/svg" xmlns:xlink="http://www.w3.org/1999/xlink" x="0px" y="0px" width="100px"
	 height="100px" viewBox="0 0 100 100" style="enable-background:new 0 0 100 100;" xml:space="preserve">
<style type="text/css">
	.st0{fill:none;stroke:#000000;stroke-miterlimit:10;}
	.st1{fill:#B3B3B3;}
</style>
<g id="圖層_5">
</g>
<g id="flag">
	<polygon class="st1" points="73.34,26.66 60.01,19.99 36.188,15.799 36.188,44.182 60.01,39.99 73.34,33.32 75.812,30.187 	"/>
	<rect x="73.34" y="26.66" width="13.33" height="6.66"/>
	<rect x="60.01" y="33.32" width="13.33" height="6.67"/>
	<rect x="60.01" y="19.99" width="13.33" height="6.67"/>
	<polygon points="66.68,86.67 66.68,93.33 13.33,93.33 13.33,86.67 20,86.67 20,80 26.66,80 26.66,6.67 39.99,6.67 39.99,13.33 
		60.01,13.33 60.01,19.99 39.99,19.99 39.99,39.99 60.01,39.99 60.01,46.65 39.99,46.65 39.99,80 60.02,80 60.02,86.67 	"/>
</g>
<g id="boom">
</g>
<g id="arrow">
</g>
<g id="zoom">
</g>
<g id="cross">
</g>
<g id="collapse">
</g>
<g id="U">
</g>
<g id="O">
</g>
<g id="D">
</g>
<g id="I">
</g>
</svg>
