<?xml version="1.0" encoding="utf-8"?>
<!-- Generator: Adobe Illustrator 25.0.1, SVG Export Plug-In . SVG Version: 6.00 Build 0)  -->
<svg version="1.1" xmlns="http://www.w3.org/2000/svg" xmlns:xlink="http://www.w3.org/1999/xlink" x="0px" y="0px" width="100px"
	 height="100px" viewBox="0 0 100 100" style="enable-background:new 0 0 100 100;" xml:space="preserve">
<style type="text/css">
	.st0{fill:none;stroke:#000000;stroke-miterlimit:10;}
	.st1{fill:#FF0000;}
	.st2{fill:none;stroke:#000000;stroke-width:0.25;stroke-miterlimit:10;}
	.st3{display:none;}
	.st4{display:inline;fill:#FFFF00;stroke:#000000;stroke-width:0.25;stroke-miterlimit:10;}
	.st5{fill:#3A3A3A;}
	.st6{fill:#F7F7F7;}
	.st7{fill:#D63031;}
	.st8{fill:#111111;}
	.st9{fill:#0984E3;}
	.st10{fill:#00B894;}
	.st11{fill:#6C5CE7;}
	.st12{fill:#E17055;}
	.st13{fill:#74B9FF;}
	.st14{fill:#DFE6E9;}
	.st15{fill:#B2BEC3;}
	.st16{fill:#666666;}
	.st17{fill:#E6E6E6;}
	.st18{fill:#F2F2F2;}
	.st19{fill:#575757;}
	.st20{fill:#B3B3B3;}
</style>
<g id="圖層_5">
</g>
<g id="圖層_14" class="st3">
	<circle class="st4" cx="50" cy="59.563" r="34.056"/>
</g>
<g id="圖層_13">
</g>
<g id="圖層_15">
	<rect x="65.629" y="35.574" class="st5" width="28.698" height="28.698"/>
	<rect x="35.149" y="6.018" class="st6" width="28.698" height="28.698"/>
	<rect x="6.019" y="35.65" class="st6" width="28.698" height="28.698"/>
	<rect x="35.651" y="35.651" class="st7" width="28.698" height="28.698"/>
	<rect x="35.649" y="65.282" class="st5" width="28.698" height="28.698"/>
	<polygon class="st5" points="34.717,34.716 6.019,34.716 6.019,11.118 11.11,11.118 11.11,6.018 34.717,6.018 	"/>
	<polygon class="st6" points="34.717,65.282 34.717,93.98 11.119,93.98 11.119,88.889 6.019,88.889 6.019,65.282 	"/>
	<polygon class="st6" points="65.281,65.282 93.979,65.282 93.979,88.88 88.888,88.88 88.888,93.98 65.281,93.98 	"/>
	<polygon class="st6" points="65.281,34.716 65.281,6.018 88.879,6.018 88.879,11.109 93.979,11.109 93.979,34.716 	"/>
	<g>
		<rect x="88.889" y="7.407" class="st8" width="3.703" height="3.71"/>
		<rect x="7.407" y="7.407" class="st8" width="3.703" height="3.71"/>
		<path class="st8" d="M92.593,11.118v22.213H66.667V7.407h22.222V3.704H11.11v3.704h22.219v25.924H7.407V11.118H3.704v77.771h3.704
			v-22.22h25.922v25.924H11.11v-3.704H7.407v3.711h3.703v3.697h77.779v-3.697h3.703v-3.711h-3.703v3.704H66.667V66.669h25.926v22.22
			h3.704V11.118H92.593z M62.963,7.407v25.924h-25.93V7.407H62.963z M62.963,37.035v25.93h-25.93v-25.93H62.963z M7.407,62.965
			v-25.93h25.922v25.93H7.407z M37.033,92.593V66.669h25.93v25.924H37.033z M66.667,62.965v-25.93h25.926l0,25.93H66.667z"/>
	</g>
	<path class="st9" d="M12.346,29.727v-2.674h5.348V16.356H15.02v-2.674h2.674v-2.674h5.348v16.045h5.348v2.674H12.346z"/>
	<path class="st10" d="M40.645,88.99v-5.348h2.674v-2.674h2.674v-2.674h5.348v-2.674h2.674v-2.674h-8.023v2.674h-5.348v-2.674h2.674
		v-2.674H56.69v2.674h2.674v5.348H56.69v2.674h-2.674v2.674h-5.348v2.674h10.697v2.674H40.645z"/>
	<path class="st7" d="M72.944,59.361v-2.674H70.27v-2.674h5.348v2.674h8.023v-5.348h-8.023v-2.674h2.674V45.99h2.674v-2.674h-8.023
		v-2.674h16.045v2.674h-2.674v2.674h-2.674v2.674h2.674v2.674h2.674v5.348h-2.674v2.674H72.944z"/>
	<g>
		<polygon class="st9" points="26.062,44.308 22.81,42.681 16.999,41.658 16.999,48.582 22.81,47.559 26.062,45.932 26.665,45.168 
					"/>
		<g>
			<rect x="26.062" y="44.308" class="st5" width="3.252" height="1.625"/>
			<rect x="22.81" y="45.932" class="st5" width="3.252" height="1.627"/>
			<rect x="22.81" y="42.681" class="st5" width="3.252" height="1.627"/>
			<polygon class="st5" points="24.437,58.946 24.437,60.571 11.423,60.571 11.423,58.946 13.05,58.946 13.05,57.319 14.675,57.319 
				14.675,39.431 17.927,39.431 17.927,41.056 22.81,41.056 22.81,42.681 17.927,42.681 17.927,47.559 22.81,47.559 22.81,49.184 
				17.927,49.184 17.927,57.319 22.812,57.319 22.812,58.946 			"/>
		</g>
	</g>
	<g>
		<polygon class="st9" points="85.323,14.674 82.071,13.047 76.26,12.024 76.26,18.948 82.071,17.925 85.323,16.298 85.926,15.534 
					"/>
		<g>
			<rect x="85.323" y="14.674" class="st5" width="3.252" height="1.625"/>
			<rect x="82.071" y="16.298" class="st5" width="3.252" height="1.627"/>
			<rect x="82.071" y="13.047" class="st5" width="3.252" height="1.627"/>
			<polygon class="st5" points="83.698,29.312 83.698,30.937 70.685,30.937 70.685,29.312 72.312,29.312 72.312,27.685 
				73.936,27.685 73.936,9.797 77.188,9.797 77.188,11.422 82.071,11.422 82.071,13.047 77.188,13.047 77.188,17.925 82.071,17.925 
				82.071,19.55 77.188,19.55 77.188,27.685 82.074,27.685 82.074,29.312 			"/>
		</g>
	</g>
	<g>
		<polygon class="st19" points="56.939,48.454 55.397,46.914 53.857,43.832 52.314,42.899 47.686,42.899 46.146,43.832 
			44.603,46.914 43.063,48.454 41.936,50.001 41.936,54.626 43.063,56.166 44.603,57.708 46.146,59.248 47.686,60.212 
			52.314,60.212 53.857,59.248 55.397,57.708 56.939,56.166 57.659,54.626 57.659,50.001 		"/>
		<g>
			<rect x="56.939" y="48.454" class="st6" width="1.54" height="7.711"/>
			<rect x="55.397" y="56.166" class="st6" width="1.542" height="1.542"/>
			<rect x="55.397" y="46.914" class="st6" width="1.542" height="1.54"/>
			<rect x="53.857" y="57.708" class="st6" width="1.54" height="1.54"/>
			<rect x="53.857" y="43.832" class="st6" width="1.54" height="3.082"/>
			<rect x="50.775" y="39.21" class="st6" width="3.082" height="1.54"/>
			<rect x="46.146" y="59.248" class="st6" width="7.711" height="1.542"/>
			<polygon class="st6" points="53.857,43.832 53.857,42.29 50.775,42.29 50.775,40.75 49.228,40.75 49.228,42.29 46.146,42.29 
				46.146,43.832 			"/>
			<rect x="46.146" y="54.626" class="st6" width="1.54" height="1.54"/>
			<rect x="46.146" y="48.454" class="st6" width="1.54" height="1.547"/>
			<polygon class="st6" points="52.314,46.914 52.314,45.372 46.146,45.372 46.146,43.832 44.603,43.832 44.603,46.914 			"/>
			<rect x="44.603" y="57.708" class="st6" width="1.542" height="1.54"/>
			<rect x="44.603" y="50.001" class="st6" width="1.542" height="4.624"/>
			<rect x="43.063" y="56.166" class="st6" width="1.54" height="1.542"/>
			<rect x="43.063" y="46.914" class="st6" width="1.54" height="1.54"/>
			<rect x="41.521" y="48.454" class="st6" width="1.542" height="7.711"/>
		</g>
	</g>
	<g>
		<rect x="21.707" y="51.337" class="st7" width="2.675" height="2.675"/>
		<rect x="19.033" y="48.663" class="st7" width="2.674" height="2.674"/>
		<rect x="27.055" y="56.686" class="st7" width="2.675" height="2.675"/>
		<rect x="24.382" y="54.012" class="st7" width="2.674" height="2.674"/>
		<rect x="16.355" y="45.986" class="st7" width="2.678" height="2.678"/>
		<rect x="13.681" y="43.312" class="st7" width="2.674" height="2.674"/>
		<rect x="11.006" y="40.637" class="st7" width="2.675" height="2.675"/>
	</g>
</g>
<g id="flag">
</g>
<g id="boom">
</g>
<g id="arrow">
</g>
<g id="zoom">
</g>
<g id="cross">
</g>
<g id="collapse">
</g>
<g id="U">
</g>
<g id="O">
</g>
<g id="D">
</g>
<g id="I">
</g>
<g id="logo">
</g>
</svg>
