<?xml version="1.0" encoding="utf-8"?>
<!-- Generator: Adobe Illustrator 25.0.1, SVG Export Plug-In . SVG Version: 6.00 Build 0)  -->
<svg version="1.1" xmlns="http://www.w3.org/2000/svg" xmlns:xlink="http://www.w3.org/1999/xlink" x="0px" y="0px" width="100px"
	 height="100px" viewBox="0 0 100 100" style="enable-background:new 0 0 100 100;" xml:space="preserve">
<style type="text/css">
	.st0{fill:none;stroke:#000000;stroke-width:0.25;stroke-miterlimit:10;}
	.st1{fill:#6C5CE7;}
	.st2{fill:#E17055;}
	.st3{fill:#74B9FF;}
	.st4{fill:#DFE6E9;}
	.st5{fill:#B2BEC3;}
	.st6{fill:#666666;}
	.st7{fill:#E6E6E6;}
	.st8{fill:#F2F2F2;}
	.st9{fill:#111111;}
	.st10{fill:#3A3A3A;}
	.st11{fill:#F7F7F7;}
	.st12{fill:#D63031;}
	.st13{fill:#0984E3;}
	.st14{fill:#00B894;}
	.st15{fill:#575757;}
	.st16{fill:#4D4D4D;}
	.st17{fill:#1A1A1A;}
	.st18{fill:#808080;}
	.st19{fill:#CCCCCC;}
	.st20{fill:#333333;}
	.st21{fill:#B3B3B3;}
	.st22{fill:#0C2135;}
	.st23{fill:#999999;}
	.st24{fill:#081728;}
	.st25{fill:#0E274C;}
	.st26{fill:#FFFFFF;}
	.st27{fill:#00FF00;}
	.st28{fill:#FF0000;}
</style>
<g id="圖層_5">
</g>
<g id="simple">
</g>
<g id="icon-bug-min">
	<path class="st25" d="M91.665,11.118l-0.001-3.71h-3.703V3.704H10.183v3.704H6.48v3.71H2.776v77.771H6.48v3.711h3.703v3.697h77.779
		v-3.697h3.703v-3.711l0.001-0.006v0.006h3.704V11.118H91.665z"/>
	<path class="st22" d="M91.663,48.146c-27.115,0-61.659,0-88.89,0c0,6.532,0,13.838,0,20.37c28.527,0,64.18,0,92.6,0
		c0-6.532,0-13.839,0-20.37H91.663z"/>
	<path class="st21" d="M80.553,51.846c0-1.846,0-5.564,0-7.41h-3.7v-3.7h-3.71v-3.7h-3.7v-3.71c-1.846,0-5.564,0-7.41,0v-3.7
		c-8.474,0-17.446,0-25.92,0v3.7c-1.847,0-5.564,0-7.41,0v3.71h-3.7v3.7h-3.71v3.7h-3.7c0,3.302,0,7.818,0,11.12h-3.71
		c0,5.935,0,12.575,0,18.51h3.71v3.71c1.846,0,5.564,0,7.41,0v3.7c14.717,0,29.723,0,44.44,0v-3.7c3.299,0,7.812,0,11.11,0v-3.71
		h3.71c0-7.212,0-15.008,0-22.22H80.553z"/>
	<path d="M28.703,48.146c0,1.846,0,5.564,0,7.41h7.41c0-1.847,0-5.564,0-7.41H28.703z"/>
	<path d="M58.333,48.146c0,1.846,0,5.564,0,7.41h7.41c0-1.847,0-5.564,0-7.41H58.333z"/>
	<rect x="62.033" y="51.846" class="st17" width="3.71" height="3.71"/>
	<rect x="62.033" y="48.146" class="st18" width="3.71" height="3.7"/>
	<rect x="32.403" y="51.846" class="st17" width="3.71" height="3.71"/>
	<rect x="32.403" y="48.146" class="st20" width="3.71" height="3.7"/>
	<path class="st19" d="M58.333,44.436h-3.7c0,1.847,0,5.564,0,7.41h3.7v-3.7h3.7v-3.71H58.333z"/>
	<path class="st18" d="M47.223,33.326h-3.71c0,1.847,0,5.564,0,7.41h3.71v3.7h3.7c0-3.299,0-7.811,0-11.11H47.223z"/>
	<path class="st7" d="M39.813,29.626v3.7c-3.299,0-7.811,0-11.11,0c0,1.847,0,5.564,0,7.41h-3.7v3.7h-3.71c0,1.847,0,5.564,0,7.41
		c1.847,0,5.564,0,7.41,0v-3.7h3.7c0-1.847,0-5.564,0-7.41h3.71v-3.7h3.7v3.7h3.7c0-3.299,0-7.811,0-11.11H39.813z"/>
	<path class="st16" d="M91.663,66.666c-1.844,0-5.557,0-7.4,0c0,1.844,0,5.557,0,7.4h-3.71v3.71c-3.299,0-7.812,0-11.11,0v3.7
		c-14.717,0-29.723,0-44.44,0v-3.7c-1.847,0-5.564,0-7.41,0v-3.71h-3.71c0-1.844,0-5.557,0-7.4c-3.299,0-7.811,0-11.11,0
		c0,7.212,0,15.008,0,22.22h3.71v3.7h3.7v3.71c25.872,0,51.908,0,77.78,0v-3.71h3.7v-3.7h3.71c0-7.212,0-15.008,0-22.22H91.663z"/>
	<path class="st20" d="M87.963,77.776v-3.71c-1.846,0-5.564,0-7.41,0v3.71c-3.299,0-7.812,0-11.11,0v3.7c-14.717,0-29.723,0-44.44,0
		v-3.7h-3.71v3.7h-3.7v3.71c1.846,0,5.564,0,7.41,0v3.7c18.44,0,37.11,0,55.55,0v-3.7c1.847,0,5.564,0,7.41,0v-3.71h3.7v-3.7H87.963
		z"/>
	<path class="st18" d="M80.553,51.841v-3.7h-3.7v3.7h-3.71c0,1.847,0,5.564,0,7.41h-3.7v3.7h-3.7v3.71c-1.846,0-5.564,0-7.41,0v3.7
		c-2.321,0-4.864,0-7.407,0l0.005,3.695l-3.71,0.005l-3.71,0.005v-0.005l-3.687,0.005v3.7h-3.71v0.005c-1.846,0-5.564,0-7.41,0
		v-3.71c-1.846,0-5.564,0-7.41,0v3.71h3.71v3.7c14.717,0,29.723,0,44.44,0v-3.7c3.299,0,7.812,0,11.11,0v-3.71h3.71
		c0-7.212,0-15.008,0-22.22H80.553z"/>
	<path class="st6" d="M76.853,59.256c0,1.846,0,5.564,0,7.41c-3.299,0-7.811,0-11.11,0c0,1.844,0,5.557,0,7.4
		c-3.299,0-7.811,0-11.11,0v3.71c-3.302,0-7.818,0-11.12,0v3.7c8.477,0,17.453,0,25.93,0v-3.7h3.7v-3.71c1.847,0,5.564,0,7.41,0
		c0-4.64,0-10.17,0-14.81H76.853z"/>
	<g>
		<rect x="76.853" y="66.666" class="st16" width="3.7" height="3.7"/>
		<path class="st16" d="M69.443,70.366v3.7c-1.846,0-5.564,0-7.41,0v3.71c3.299,0,7.811,0,11.11,0v-3.71h3.71v-3.7
			C75.006,70.366,71.288,70.366,69.443,70.366z"/>
	</g>
</g>
<g id="icon-bug">
</g>
<g id="icon-fake">
</g>
<g id="icon-github">
</g>
<g id="icon-100div-min">
</g>
<g id="icon-100div">
</g>
<g id="icon-minesweeper-min">
</g>
<g id="icon-minesweeper">
</g>
</svg>
