<?xml version="1.0" encoding="utf-8"?>
<!-- Generator: Adobe Illustrator 25.0.1, SVG Export Plug-In . SVG Version: 6.00 Build 0)  -->
<svg version="1.1" xmlns="http://www.w3.org/2000/svg" xmlns:xlink="http://www.w3.org/1999/xlink" x="0px" y="0px" width="100px"
	 height="100px" viewBox="0 0 100 100" style="enable-background:new 0 0 100 100;" xml:space="preserve">
<style type="text/css">
	.st0{fill:none;stroke:#000000;stroke-miterlimit:10;}
	.st1{fill:#FF0000;}
	.st2{fill:none;stroke:#000000;stroke-width:0.25;stroke-miterlimit:10;}
	.st3{fill:#6C5CE7;}
	.st4{fill:#E17055;}
	.st5{fill:#74B9FF;}
	.st6{fill:#DFE6E9;}
	.st7{fill:#B2BEC3;}
	.st8{fill:#666666;}
	.st9{fill:#E6E6E6;}
	.st10{fill:#F2F2F2;}
	.st11{fill:#111111;}
	.st12{fill:#D63031;}
	.st13{fill:#FFFFFF;}
	.st14{fill:#333333;}
	.st15{fill:#00FF00;}
	.st16{fill:#F7F7F7;}
	.st17{fill:#575757;}
	.st18{fill:#3A3A3A;}
	.st19{fill:#0984E3;}
	.st20{fill:#00B894;}
	.st21{fill:#B3B3B3;}
</style>
<g id="圖層_5">
</g>
<g id="simple">
</g>
<g id="圖層_18">
</g>
<g id="icon">
</g>
<g id="right-tool-close">
</g>
<g id="right-tool-center">
</g>
<g id="icon-fake">
</g>
<g id="icon-github">
</g>
<g id="icon-100div-min">
</g>
<g id="icon-100div">
</g>
<g id="icon-minesweeper-min">
</g>
<g id="icon-minesweeper">
	<g>
		<rect x="65.634" y="35.574" class="st18" width="28.698" height="28.698"/>
		<rect x="35.154" y="6.018" class="st16" width="28.698" height="28.698"/>
		<rect x="6.024" y="35.65" class="st16" width="28.698" height="28.698"/>
		<rect x="35.656" y="35.651" class="st12" width="28.698" height="28.698"/>
		<rect x="35.654" y="65.282" class="st18" width="28.698" height="28.698"/>
		<polygon class="st18" points="34.722,34.716 6.024,34.716 6.024,11.118 11.115,11.118 11.115,6.018 34.722,6.018 		"/>
		<polygon class="st16" points="34.722,65.282 34.722,93.98 11.124,93.98 11.124,88.889 6.024,88.889 6.024,65.282 		"/>
		<polygon class="st16" points="65.285,65.282 93.984,65.282 93.984,88.88 88.893,88.88 88.893,93.98 65.285,93.98 		"/>
		<polygon class="st16" points="65.285,34.716 65.285,6.018 88.884,6.018 88.884,11.109 93.984,11.109 93.984,34.716 		"/>
		<g>
			<rect x="88.894" y="7.407" class="st11" width="3.703" height="3.71"/>
			<rect x="7.412" y="7.407" class="st11" width="3.703" height="3.71"/>
			<path class="st11" d="M92.597,11.118v22.213H66.671V7.407h22.222V3.704H11.115v3.704h22.219v25.924H7.412V11.118H3.709v77.771
				h3.704v-22.22h25.922v25.924H11.115v-3.704H7.412v3.711h3.703v3.697h77.779v-3.697h3.703v-3.711h-3.703v3.704H66.671V66.669
				h25.926v22.22h3.704V11.118H92.597z M62.968,7.407v25.924h-25.93V7.407H62.968z M62.968,37.035v25.93h-25.93v-25.93H62.968z
				 M7.412,62.965v-25.93h25.922v25.93H7.412z M37.038,92.593V66.669h25.93v25.924H37.038z M66.671,62.965v-25.93h25.926l0,25.93
				H66.671z"/>
		</g>
	</g>
	<polygon class="st19" points="81.49,15.01 77.78,15.01 77.78,18.71 81.49,18.71 85.19,18.71 85.19,15.01 	"/>
	<polygon class="st12" points="88.89,44.64 88.89,40.93 85.19,40.93 81.49,40.93 77.78,40.93 74.08,40.93 70.38,40.93 70.38,44.64 
		74.08,44.64 77.78,44.64 81.49,44.64 81.49,48.34 77.78,48.34 77.78,52.04 81.49,52.04 85.19,52.04 85.19,55.75 81.49,55.75 
		77.78,55.75 74.08,55.75 70.38,55.75 70.38,59.45 74.08,59.45 77.78,59.45 81.49,59.45 85.19,59.45 88.89,59.45 88.89,55.75 
		88.89,52.04 88.89,48.34 85.19,48.34 85.19,44.64 	"/>
	<g>
		<rect x="85.19" y="15.01" class="st18" width="3.7" height="3.7"/>
		<polygon class="st18" points="77.78,18.71 77.78,15.01 81.49,15.01 81.49,11.3 77.78,11.3 74.08,11.3 74.08,15.01 74.08,18.71 
			74.08,22.41 74.08,26.12 70.38,26.12 70.38,29.82 74.08,29.82 77.78,29.82 81.49,29.82 85.19,29.82 85.19,26.12 81.49,26.12 
			77.78,26.12 77.78,22.41 81.49,22.41 85.19,22.41 85.19,18.71 81.49,18.71 		"/>
	</g>
	<g>
		<rect x="55.56" y="74.27" class="st20" width="3.7" height="3.7"/>
		<rect x="51.86" y="77.97" class="st20" width="3.7" height="3.7"/>
		<polygon class="st20" points="51.86,70.56 48.15,70.56 44.45,70.56 44.45,74.27 48.15,74.27 51.86,74.27 55.56,74.27 55.56,70.56 
					"/>
		<polygon class="st20" points="48.15,81.67 48.15,85.38 44.45,85.38 40.75,85.38 40.75,89.08 44.45,89.08 48.15,89.08 51.86,89.08 
			55.56,89.08 59.26,89.08 59.26,85.38 55.56,85.38 51.86,85.38 51.86,81.67 		"/>
		<rect x="40.75" y="74.27" class="st20" width="3.7" height="3.7"/>
	</g>
	<g>
		<polygon class="st16" points="55.56,46.64 55.56,50.34 55.56,54.04 55.56,57.75 59.26,57.75 59.26,54.04 59.26,50.34 59.26,46.64 
					"/>
		<polygon class="st16" points="48.15,57.75 44.45,57.75 44.45,61.45 48.15,61.45 51.86,61.45 55.56,61.45 55.56,57.75 51.86,57.75 
					"/>
		<polygon class="st16" points="51.86,46.64 55.56,46.64 55.56,42.93 51.86,42.93 51.86,39.23 48.15,39.23 48.15,42.93 44.45,42.93 
			44.45,46.64 48.15,46.64 		"/>
		<polygon class="st16" points="44.45,50.34 44.45,46.64 40.75,46.64 40.75,50.34 40.75,54.04 40.75,57.75 44.45,57.75 44.45,54.04 
					"/>
	</g>
	<rect x="25.93" y="55.75" class="st1" width="3.7" height="3.7"/>
	<rect x="22.23" y="52.04" class="st1" width="3.7" height="3.71"/>
	<rect x="18.52" y="48.34" class="st1" width="3.71" height="3.7"/>
	<polygon class="st19" points="22.23,44.64 18.52,44.64 18.52,48.34 22.23,48.34 25.93,48.34 25.93,44.64 	"/>
	<rect x="14.82" y="44.64" class="st1" width="3.7" height="3.7"/>
	<polygon class="st19" points="22.23,26.12 22.23,22.41 22.23,18.71 22.23,15.01 22.23,11.3 18.52,11.3 14.82,11.3 14.82,15.01 
		18.52,15.01 18.52,18.71 18.52,22.41 18.52,26.12 14.82,26.12 14.82,29.82 18.52,29.82 22.23,29.82 25.93,29.82 25.93,26.12 	"/>
	<g>
		<rect x="25.93" y="44.64" class="st18" width="3.7" height="3.7"/>
		<rect x="22.23" y="48.34" class="st18" width="3.7" height="3.7"/>
		<polygon class="st18" points="18.52,55.75 18.52,52.04 18.52,48.34 14.82,48.34 14.82,52.04 14.82,55.75 11.12,55.75 11.12,59.45 
			14.82,59.45 18.52,59.45 22.23,59.45 25.93,59.45 25.93,55.75 22.23,55.75 		"/>
		<polygon class="st18" points="22.23,44.64 22.23,40.93 18.52,40.93 14.82,40.93 14.82,44.64 18.52,44.64 		"/>
	</g>
	<rect x="11.12" y="40.93" class="st1" width="3.7" height="3.71"/>
	<rect x="44.45" y="46.64" class="st17" width="11.11" height="11.11"/>
	<rect x="46.305" y="50.002" class="st16" width="3.7" height="3.7"/>
</g>
<g id="flag">
</g>
<g id="boom">
</g>
<g id="arrow">
</g>
<g id="zoom">
</g>
<g id="cross">
</g>
<g id="collapse">
</g>
<g id="U">
</g>
<g id="O">
</g>
<g id="D">
</g>
<g id="I">
</g>
<g id="logo">
</g>
</svg>
