<?xml version="1.0" encoding="utf-8"?>
<!-- Generator: Adobe Illustrator 25.0.1, SVG Export Plug-In . SVG Version: 6.00 Build 0)  -->
<svg version="1.1" xmlns="http://www.w3.org/2000/svg" xmlns:xlink="http://www.w3.org/1999/xlink" x="0px" y="0px" width="100px"
	 height="100px" viewBox="0 0 100 100" style="enable-background:new 0 0 100 100;" xml:space="preserve">
<style type="text/css">
	.st0{fill:none;stroke:#000000;stroke-miterlimit:10;}
	.st1{fill:#FF0000;}
	.st2{fill:none;stroke:#000000;stroke-width:0.25;stroke-miterlimit:10;}
	.st3{fill:#6C5CE7;}
	.st4{fill:#E17055;}
	.st5{fill:#74B9FF;}
	.st6{fill:#DFE6E9;}
	.st7{fill:#B2BEC3;}
	.st8{fill:#666666;}
	.st9{fill:#E6E6E6;}
	.st10{fill:#F2F2F2;}
	.st11{fill:#111111;}
	.st12{fill:#3A3A3A;}
	.st13{fill:#F7F7F7;}
	.st14{fill:#D63031;}
	.st15{fill:#0984E3;}
	.st16{fill:#00B894;}
	.st17{fill:#575757;}
	.st18{fill:#FFFFFF;}
	.st19{fill:#333333;}
	.st20{fill:#00FF00;}
	.st21{fill:#B3B3B3;}
</style>
<g id="圖層_5">
</g>
<g id="simple">
</g>
<g id="open">
</g>
<g id="github">
</g>
<g id="heart">
	<polygon class="st14" points="85,20 85,10 65,10 65,20 55,20 55,30 45,30 45,20 35,20 35,10 15,10 15,20 5,20 5,50 15,50 15,60 
		25,60 25,70 35,70 35,80 45,80 45,90 55,90 55,80 65,80 65,70 75,70 75,60 85,60 85,50 95,50 95,20 	"/>
</g>
<g id="icon">
</g>
<g id="right-tool-close">
</g>
<g id="right-tool-center">
</g>
<g id="icon-fake">
</g>
<g id="icon-github">
</g>
<g id="icon-100div-min">
</g>
<g id="icon-100div">
</g>
<g id="icon-minesweeper-min">
</g>
<g id="icon-minesweeper">
</g>
<g id="flag">
</g>
<g id="boom">
</g>
<g id="arrow">
</g>
<g id="zoom">
</g>
<g id="cross">
</g>
<g id="collapse">
</g>
<g id="U">
</g>
<g id="O">
</g>
<g id="D">
</g>
<g id="I">
</g>
<g id="logo">
</g>
</svg>
